<?xml version="1.0" encoding="UTF-8"?>
<svg xmlns="http://www.w3.org/2000/svg" xmlns:xlink="http://www.w3.org/1999/xlink" stroke-dasharray="none" shape-rendering="auto" font-family="'Dialog'" width="608" text-rendering="auto" fill-opacity="1" contentScriptType="text/ecmascript" color-interpolation="auto" color-rendering="auto" preserveAspectRatio="xMidYMid meet" font-size="12" viewBox="0 0 608 454" fill="black" stroke="black" image-rendering="auto" stroke-miterlimit="10" zoomAndPan="magnify" version="1.0" stroke-linecap="square" stroke-linejoin="miter" contentStyleType="text/css" font-style="normal" height="454" stroke-width="1" stroke-dashoffset="0" font-weight="normal" stroke-opacity="1">
<!--Generated by the Batik Graphics2D SVG Generator-->
<defs id="genericDefs"/>
<g>
<defs id="defs1">
<clipPath clipPathUnits="userSpaceOnUse" id="clipPath1">
<path d="M70 70 L217 70 L217 133 L70 133 L70 70 Z"/>
</clipPath>
<clipPath clipPathUnits="userSpaceOnUse" id="clipPath2">
<path d="M75 75 L143 75 L143 92 L75 92 L75 75 Z"/>
</clipPath>
<clipPath clipPathUnits="userSpaceOnUse" id="clipPath3">
<path d="M75 95 L212 95 L212 127 L75 127 L75 95 Z"/>
</clipPath>
<clipPath clipPathUnits="userSpaceOnUse" id="clipPath4">
<path d="M334 70 L577 70 L577 133 L334 133 L334 70 Z"/>
</clipPath>
<clipPath clipPathUnits="userSpaceOnUse" id="clipPath5">
<path d="M339 75 L450 75 L450 92 L339 92 L339 75 Z"/>
</clipPath>
<clipPath clipPathUnits="userSpaceOnUse" id="clipPath6">
<path d="M339 95 L558 95 L558 127 L339 127 L339 95 Z"/>
</clipPath>
<clipPath clipPathUnits="userSpaceOnUse" id="clipPath7">
<path d="M22 82 L54 82 L54 114 L22 114 L22 82 Z"/>
</clipPath>
<clipPath clipPathUnits="userSpaceOnUse" id="clipPath8">
<path d="M34 202 L445 202 L445 445 L34 445 L34 202 Z"/>
</clipPath>
<clipPath clipPathUnits="userSpaceOnUse" id="clipPath9">
<path d="M39 207 L137 207 L137 224 L39 224 L39 207 Z"/>
</clipPath>
<clipPath clipPathUnits="userSpaceOnUse" id="clipPath10">
<path d="M39 227 L157 227 L157 244 L39 244 L39 227 Z"/>
</clipPath>
<clipPath clipPathUnits="userSpaceOnUse" id="clipPath11">
<path d="M39 254 L440 254 L440 440 L39 440 L39 254 Z"/>
</clipPath>
<clipPath clipPathUnits="userSpaceOnUse" id="clipPath12">
<path d="M46 267 L433 267 L433 427 L46 427 L46 267 Z"/>
</clipPath>
<clipPath clipPathUnits="userSpaceOnUse" id="clipPath13">
<path d="M51 272 L89 272 L89 289 L51 289 L51 272 Z"/>
</clipPath>
<clipPath clipPathUnits="userSpaceOnUse" id="clipPath14">
<path d="M51 292 L428 292 L428 422 L51 422 L51 292 Z"/>
</clipPath>
<clipPath clipPathUnits="userSpaceOnUse" id="clipPath15">
<path d="M58 356 L151 356 L151 409 L58 409 L58 356 Z"/>
</clipPath>
<clipPath clipPathUnits="userSpaceOnUse" id="clipPath16">
<path d="M63 361 L116 361 L116 378 L63 378 L63 361 Z"/>
</clipPath>
<clipPath clipPathUnits="userSpaceOnUse" id="clipPath17">
<path d="M250 356 L385 356 L385 411 L250 411 L250 356 Z"/>
</clipPath>
<clipPath clipPathUnits="userSpaceOnUse" id="clipPath18">
<path d="M255 361 L283 361 L283 378 L255 378 L255 361 Z"/>
</clipPath>
<clipPath clipPathUnits="userSpaceOnUse" id="clipPath19">
<path d="M255 385 L358 385 L358 402 L255 402 L255 385 Z"/>
</clipPath>
<clipPath clipPathUnits="userSpaceOnUse" id="clipPath20">
<path d="M82 306 L114 306 L114 338 L82 338 L82 306 Z"/>
</clipPath>
<clipPath clipPathUnits="userSpaceOnUse" id="clipPath21">
<path d="M454 238 L588 238 L588 390 L454 390 L454 238 Z"/>
</clipPath>
<clipPath clipPathUnits="userSpaceOnUse" id="clipPath22">
<path d="M459 243 L506 243 L506 260 L459 260 L459 243 Z"/>
</clipPath>
<clipPath clipPathUnits="userSpaceOnUse" id="clipPath23">
<path d="M459 263 L583 263 L583 385 L459 385 L459 263 Z"/>
</clipPath>
<clipPath clipPathUnits="userSpaceOnUse" id="clipPath24">
<path d="M-1 -1 L609 -1 L609 455 L-1 455 L-1 -1 Z"/>
</clipPath>
<clipPath clipPathUnits="userSpaceOnUse" id="clipPath25">
<path d="M229 308 L322 308 L322 340 L229 340 L229 308 Z"/>
</clipPath>
<clipPath clipPathUnits="userSpaceOnUse" id="clipPath26">
<path d="M321 349 L330 349 L330 359 L321 359 L321 349 Z"/>
</clipPath>
<clipPath clipPathUnits="userSpaceOnUse" id="clipPath27">
<path d="M94 349 L103 349 L103 359 L94 359 L94 349 Z"/>
</clipPath>
<clipPath clipPathUnits="userSpaceOnUse" id="clipPath28">
<path d="M152 386 L249 386 L249 403 L152 403 L152 386 Z"/>
</clipPath>
<clipPath clipPathUnits="userSpaceOnUse" id="clipPath29">
<path d="M243 381 L253 381 L253 390 L243 390 L243 381 Z"/>
</clipPath>
<clipPath clipPathUnits="userSpaceOnUse" id="clipPath30">
<path d="M63 96 L73 96 L73 105 L63 105 L63 96 Z"/>
</clipPath>
<clipPath clipPathUnits="userSpaceOnUse" id="clipPath31">
<path d="M251 61 L310 61 L310 78 L251 78 L251 61 Z"/>
</clipPath>
<clipPath clipPathUnits="userSpaceOnUse" id="clipPath32">
<path d="M327 73 L337 73 L337 82 L327 82 L327 73 Z"/>
</clipPath>
<clipPath clipPathUnits="userSpaceOnUse" id="clipPath33">
<path d="M219 130 L412 130 L412 162 L219 162 L219 130 Z"/>
</clipPath>
<clipPath clipPathUnits="userSpaceOnUse" id="clipPath34">
<path d="M215 117 L226 117 L226 126 L215 126 L215 117 Z"/>
</clipPath>
<clipPath clipPathUnits="userSpaceOnUse" id="clipPath35">
<path d="M235 85 L322 85 L322 102 L235 102 L235 85 Z"/>
</clipPath>
<clipPath clipPathUnits="userSpaceOnUse" id="clipPath36">
<path d="M215 99 L225 99 L225 108 L215 108 L215 99 Z"/>
</clipPath>
<clipPath clipPathUnits="userSpaceOnUse" id="clipPath37">
<path d="M142 178 L229 178 L229 195 L142 195 L142 178 Z"/>
</clipPath>
<clipPath clipPathUnits="userSpaceOnUse" id="clipPath38">
<path d="M134 131 L143 131 L143 141 L134 141 L134 131 Z"/>
</clipPath>
<clipPath clipPathUnits="userSpaceOnUse" id="clipPath39">
<path d="M22 130 L185 130 L185 162 L22 162 L22 130 Z"/>
</clipPath>
<clipPath clipPathUnits="userSpaceOnUse" id="clipPath40">
<path d="M108 131 L117 131 L117 141 L108 141 L108 131 Z"/>
</clipPath>
<clipPath clipPathUnits="userSpaceOnUse" id="clipPath41">
<path d="M251 169 L434 169 L434 201 L251 201 L251 169 Z"/>
</clipPath>
<clipPath clipPathUnits="userSpaceOnUse" id="clipPath42">
<path d="M433 195 L442 195 L442 205 L433 205 L433 195 Z"/>
</clipPath>
<clipPath clipPathUnits="userSpaceOnUse" id="clipPath43">
<path d="M487 158 L580 158 L580 190 L487 190 L487 158 Z"/>
</clipPath>
<clipPath clipPathUnits="userSpaceOnUse" id="clipPath44">
<path d="M478 131 L487 131 L487 141 L478 141 L478 131 Z"/>
</clipPath>
<clipPath clipPathUnits="userSpaceOnUse" id="clipPath45">
<path d="M31 22 L265 22 L265 39 L31 39 L31 22 Z"/>
</clipPath>
<clipPath clipPathUnits="userSpaceOnUse" id="clipPath46">
<path d="M79 63 L88 63 L88 73 L79 73 L79 63 Z"/>
</clipPath>
<clipPath clipPathUnits="userSpaceOnUse" id="clipPath47">
<path d="M22 178 L112 178 L112 195 L22 195 L22 178 Z"/>
</clipPath>
<clipPath clipPathUnits="userSpaceOnUse" id="clipPath48">
<path d="M121 131 L130 131 L130 141 L121 141 L121 131 Z"/>
</clipPath>
</defs>
<g fill="rgb(230,230,250)" font-family="'Ubuntu'" stroke-linejoin="round" stroke="rgb(230,230,250)" stroke-width="0" stroke-miterlimit="0">
<rect x="71" y="71" clip-path="url(#clipPath1)" width="145" rx="4" ry="4" height="61" stroke="none"/>
</g>
<g stroke-width="1.1" font-family="'Ubuntu'" stroke-linecap="butt">
<rect x="71" y="71" clip-path="url(#clipPath1)" fill="none" width="144" rx="4" ry="4" height="60"/>
<text xml:space="preserve" x="76" y="88" clip-path="url(#clipPath2)" stroke="none">no_meeting</text>
<text xml:space="preserve" x="76" y="108" clip-path="url(#clipPath3)" stroke="none">ENTER / LED_OUTPUT();</text>
<text xml:space="preserve" x="76" y="123" clip-path="url(#clipPath3)" stroke="none">ENTER / SET_LED('B');</text>
<rect x="335" y="71" clip-path="url(#clipPath4)" fill="rgb(230,230,250)" width="241" rx="4" ry="4" height="61" stroke="none"/>
<rect x="335" y="71" clip-path="url(#clipPath4)" fill="none" width="240" rx="4" ry="4" height="60"/>
<text xml:space="preserve" x="340" y="88" clip-path="url(#clipPath5)" stroke="none">meeting_suggested</text>
<text xml:space="preserve" x="340" y="108" clip-path="url(#clipPath6)" stroke="none">ENTER_NOT_FROM_SELF / HIGH(LED4);</text>
<text xml:space="preserve" x="340" y="123" clip-path="url(#clipPath6)" stroke="none">EXIT_NOT_TO_SELF / LOW(LED4);</text>
<circle r="14" clip-path="url(#clipPath7)" cx="37" cy="97" stroke="none"/>
<circle fill="none" r="14.5" clip-path="url(#clipPath7)" cx="37.5" cy="97.5"/>
<rect x="35" y="203" clip-path="url(#clipPath8)" fill="rgb(255,240,245)" width="409" height="241" stroke="none"/>
<rect x="35" y="203" clip-path="url(#clipPath8)" fill="none" width="408" height="240"/>
<text xml:space="preserve" x="40" y="220" clip-path="url(#clipPath9)" stroke="none">meeting_planned</text>
<text xml:space="preserve" x="40" y="240" clip-path="url(#clipPath10)" stroke="none">ENTER / HIGH(LED5);</text>
<rect x="40" y="255" clip-path="url(#clipPath11)" fill="rgb(255,240,245)" width="399" height="184" stroke="none"/>
<rect x="47" y="268" clip-path="url(#clipPath12)" fill="white" width="385" height="158" stroke="none"/>
<rect x="47" y="268" clip-path="url(#clipPath12)" fill="none" width="384" height="157"/>
<text xml:space="preserve" x="52" y="285" clip-path="url(#clipPath13)" stroke="none">region</text>
<rect x="52" y="293" clip-path="url(#clipPath14)" fill="white" width="375" height="128" stroke="none"/>
<rect x="59" y="357" clip-path="url(#clipPath15)" fill="rgb(230,230,250)" width="91" rx="4" ry="4" height="51" stroke="none"/>
<rect x="59" y="357" clip-path="url(#clipPath15)" fill="none" width="90" rx="4" ry="4" height="50"/>
<text xml:space="preserve" x="64" y="374" clip-path="url(#clipPath16)" stroke="none">not_soon</text>
<rect x="251" y="357" clip-path="url(#clipPath17)" fill="rgb(230,230,250)" width="133" rx="4" ry="4" height="53" stroke="none"/>
<rect x="251" y="357" clip-path="url(#clipPath17)" fill="none" width="132" rx="4" ry="4" height="52"/>
<text xml:space="preserve" x="256" y="374" clip-path="url(#clipPath18)" stroke="none">soon</text>
<text xml:space="preserve" x="256" y="398" clip-path="url(#clipPath19)" stroke="none">EXIT / LOW(LED5);</text>
<circle r="14" clip-path="url(#clipPath20)" cx="97" cy="321" stroke="none"/>
<circle fill="none" r="14.5" clip-path="url(#clipPath20)" cx="97.5" cy="321.5"/>
<line clip-path="url(#clipPath14)" fill="none" x1="52" x2="427" y1="293" y2="293"/>
<line clip-path="url(#clipPath11)" fill="none" x1="40" x2="439" y1="255" y2="255"/>
<rect x="455" y="239" clip-path="url(#clipPath21)" fill="rgb(245,245,245)" width="132" height="150" stroke="none"/>
<rect x="455" y="239" clip-path="url(#clipPath21)" fill="none" width="131" height="149"/>
<text xml:space="preserve" x="460" y="256" clip-path="url(#clipPath22)" stroke="none">includes</text>
<text xml:space="preserve" x="460" y="276" clip-path="url(#clipPath23)" stroke="none">#include &lt;common.h&gt;</text>
<text xml:space="preserve" x="460" y="291" clip-path="url(#clipPath23)" stroke="none">#include "pins.h"</text>
<text xml:space="preserve" x="460" y="306" clip-path="url(#clipPath23)" stroke="none">#include "can.h"</text>
<text xml:space="preserve" x="460" y="321" clip-path="url(#clipPath23)" stroke="none"/>
<text xml:space="preserve" x="460" y="336" clip-path="url(#clipPath23)" stroke="none">inline static int</text>
<text xml:space="preserve" x="460" y="351" clip-path="url(#clipPath23)" stroke="none">time_left(void) {</text>
<text xml:space="preserve" x="460" y="366" clip-path="url(#clipPath23)" stroke="none">    return 42;</text>
<text xml:space="preserve" x="460" y="381" clip-path="url(#clipPath23)" stroke="none">}</text>
<line clip-path="url(#clipPath24)" fill="none" x1="364" x2="364" y1="357" y2="333"/>
<line clip-path="url(#clipPath24)" fill="none" x1="364" x2="325" y1="333" y2="333"/>
<line clip-path="url(#clipPath24)" fill="none" x1="325" x2="325" y1="333" y2="357"/>
<text xml:space="preserve" x="230" y="321" clip-path="url(#clipPath25)" stroke="none">wait(300ms) /</text>
<text xml:space="preserve" x="230" y="336" clip-path="url(#clipPath25)" stroke="none">  TOGGLE(LED5);</text>
<line clip-path="url(#clipPath26)" fill="none" x1="322" x2="325" y1="350" y2="357"/>
<line clip-path="url(#clipPath26)" fill="none" x1="325" x2="328" y1="357" y2="350"/>
<line clip-path="url(#clipPath24)" fill="none" x1="98" x2="98" y1="337" y2="357"/>
<line clip-path="url(#clipPath27)" fill="none" x1="95" x2="98" y1="350" y2="357"/>
<line clip-path="url(#clipPath27)" fill="none" x1="98" x2="101" y1="357" y2="350"/>
<line clip-path="url(#clipPath24)" fill="none" x1="150" x2="251" y1="385" y2="385"/>
<text xml:space="preserve" x="153" y="399" clip-path="url(#clipPath28)" stroke="none">[time_left() &lt; 14]</text>
<line clip-path="url(#clipPath29)" fill="none" x1="244" x2="251" y1="388" y2="385"/>
<line clip-path="url(#clipPath29)" fill="none" x1="251" x2="244" y1="385" y2="382"/>
<line clip-path="url(#clipPath24)" fill="none" x1="53" x2="71" y1="100" y2="100"/>
<line clip-path="url(#clipPath30)" fill="none" x1="64" x2="71" y1="103" y2="100"/>
<line clip-path="url(#clipPath30)" fill="none" x1="71" x2="64" y1="100" y2="97"/>
<line clip-path="url(#clipPath24)" fill="none" x1="216" x2="335" y1="77" y2="77"/>
<text xml:space="preserve" x="252" y="74" clip-path="url(#clipPath31)" stroke="none">suggested</text>
<line clip-path="url(#clipPath32)" fill="none" x1="328" x2="335" y1="80" y2="77"/>
<line clip-path="url(#clipPath32)" fill="none" x1="335" x2="328" y1="77" y2="74"/>
<line clip-path="url(#clipPath24)" fill="none" x1="335" x2="271" y1="117" y2="133"/>
<line clip-path="url(#clipPath24)" fill="none" x1="271" x2="216" y1="133" y2="119"/>
<text xml:space="preserve" x="220" y="143" clip-path="url(#clipPath33)" stroke="none">decline</text>
<text xml:space="preserve" x="220" y="158" clip-path="url(#clipPath33)" stroke="none">/ send_AcceptMeeting_wait(false);</text>
<line clip-path="url(#clipPath34)" fill="none" x1="224" x2="216" y1="118" y2="119"/>
<line clip-path="url(#clipPath34)" fill="none" x1="216" x2="222" y1="119" y2="124"/>
<line clip-path="url(#clipPath24)" fill="none" x1="335" x2="216" y1="103" y2="103"/>
<text xml:space="preserve" x="236" y="98" clip-path="url(#clipPath35)" stroke="none">Alice_cancelled</text>
<line clip-path="url(#clipPath36)" fill="none" x1="223" x2="216" y1="100" y2="103"/>
<line clip-path="url(#clipPath36)" fill="none" x1="216" x2="223" y1="103" y2="106"/>
<line clip-path="url(#clipPath24)" fill="none" x1="150" x2="251" y1="385" y2="385"/>
<text xml:space="preserve" x="153" y="399" clip-path="url(#clipPath28)" stroke="none">[time_left() &lt; 14]</text>
<line clip-path="url(#clipPath29)" fill="none" x1="244" x2="251" y1="388" y2="385"/>
<line clip-path="url(#clipPath29)" fill="none" x1="251" x2="244" y1="385" y2="382"/>
<line clip-path="url(#clipPath24)" fill="none" x1="138" x2="138" y1="203" y2="132"/>
<text xml:space="preserve" x="143" y="191" clip-path="url(#clipPath37)" stroke="none">Alice_cancelled</text>
<line clip-path="url(#clipPath38)" fill="none" x1="141" x2="138" y1="139" y2="132"/>
<line clip-path="url(#clipPath38)" fill="none" x1="138" x2="135" y1="132" y2="139"/>
<line clip-path="url(#clipPath24)" fill="none" x1="112" x2="112" y1="203" y2="132"/>
<text xml:space="preserve" x="23" y="143" clip-path="url(#clipPath39)" stroke="none">cancel /</text>
<text xml:space="preserve" x="23" y="158" clip-path="url(#clipPath39)" stroke="none">send_CancelMeeting_wait(0);</text>
<line clip-path="url(#clipPath40)" fill="none" x1="115" x2="112" y1="139" y2="132"/>
<line clip-path="url(#clipPath40)" fill="none" x1="112" x2="109" y1="132" y2="139"/>
<line clip-path="url(#clipPath24)" fill="none" x1="437" x2="437" y1="132" y2="203"/>
<text xml:space="preserve" x="252" y="182" clip-path="url(#clipPath41)" stroke="none">accept /</text>
<text xml:space="preserve" x="252" y="197" clip-path="url(#clipPath41)" stroke="none">send_AcceptMeeting_wait(true);</text>
<line clip-path="url(#clipPath42)" fill="none" x1="434" x2="437" y1="196" y2="203"/>
<line clip-path="url(#clipPath42)" fill="none" x1="437" x2="440" y1="203" y2="196"/>
<line clip-path="url(#clipPath24)" fill="none" x1="98" x2="98" y1="337" y2="357"/>
<line clip-path="url(#clipPath27)" fill="none" x1="95" x2="98" y1="350" y2="357"/>
<line clip-path="url(#clipPath27)" fill="none" x1="98" x2="101" y1="357" y2="350"/>
<line clip-path="url(#clipPath24)" fill="none" x1="576" x2="584" y1="119" y2="119"/>
<line clip-path="url(#clipPath24)" fill="none" x1="584" x2="584" y1="119" y2="193"/>
<line clip-path="url(#clipPath24)" fill="none" x1="584" x2="482" y1="193" y2="193"/>
<line clip-path="url(#clipPath24)" fill="none" x1="482" x2="482" y1="193" y2="132"/>
<text xml:space="preserve" x="488" y="171" clip-path="url(#clipPath43)" stroke="none">wait(500ms) /</text>
<text xml:space="preserve" x="488" y="186" clip-path="url(#clipPath43)" stroke="none">  TOGGLE(LED4);</text>
<line clip-path="url(#clipPath44)" fill="none" x1="485" x2="482" y1="139" y2="132"/>
<line clip-path="url(#clipPath44)" fill="none" x1="482" x2="479" y1="132" y2="139"/>
<line clip-path="url(#clipPath24)" fill="none" x1="364" x2="364" y1="357" y2="333"/>
<line clip-path="url(#clipPath24)" fill="none" x1="364" x2="325" y1="333" y2="333"/>
<line clip-path="url(#clipPath24)" fill="none" x1="325" x2="325" y1="333" y2="357"/>
<text xml:space="preserve" x="230" y="321" clip-path="url(#clipPath25)" stroke="none">wait(300ms) /</text>
<text xml:space="preserve" x="230" y="336" clip-path="url(#clipPath25)" stroke="none">  TOGGLE(LED5);</text>
<line clip-path="url(#clipPath26)" fill="none" x1="322" x2="325" y1="350" y2="357"/>
<line clip-path="url(#clipPath26)" fill="none" x1="325" x2="328" y1="357" y2="350"/>
<line clip-path="url(#clipPath24)" fill="none" x1="203" x2="203" y1="71" y2="47"/>
<line clip-path="url(#clipPath24)" fill="none" x1="203" x2="83" y1="47" y2="47"/>
<line clip-path="url(#clipPath24)" fill="none" x1="83" x2="83" y1="47" y2="71"/>
<text xml:space="preserve" x="32" y="35" clip-path="url(#clipPath45)" stroke="none">request / send_RequestMeeting_wait(42);</text>
<line clip-path="url(#clipPath46)" fill="none" x1="80" x2="83" y1="64" y2="71"/>
<line clip-path="url(#clipPath46)" fill="none" x1="83" x2="86" y1="71" y2="64"/>
<line clip-path="url(#clipPath24)" fill="none" x1="125" x2="125" y1="203" y2="132"/>
<text xml:space="preserve" x="23" y="191" clip-path="url(#clipPath47)" stroke="none">[time_left() &lt; 0]</text>
<line clip-path="url(#clipPath48)" fill="none" x1="128" x2="125" y1="139" y2="132"/>
<line clip-path="url(#clipPath48)" fill="none" x1="125" x2="122" y1="132" y2="139"/>
</g>
</g>
</svg>
